<?xml version="1.0" encoding="UTF-8"?> <svg xmlns="http://www.w3.org/2000/svg" xmlns:xlink="http://www.w3.org/1999/xlink" id="uuid-58c4abac-dd61-43be-8b98-15fe1cd981f6" data-name="Layer 1" viewBox="0 0 645.41 550.02"><defs><clipPath id="uuid-a2641add-696a-4d61-ab0e-9943413f01ad"><rect x="-170.15" y="-3205.92" width="1920" height="7846.49" style="fill: none;"></rect></clipPath><clipPath id="uuid-c1e66499-394d-4cc5-ae75-129dcffb260b"><rect x="-170.15" y="-3205.92" width="1920" height="7846.49" style="fill: none;"></rect></clipPath><clipPath id="uuid-30bf023a-8c11-48b8-b578-6a5750bfc284"><rect x="-169.55" y="-3205.92" width="1920" height="7846.49" style="fill: none;"></rect></clipPath></defs><rect x="-55.36" y="-3205.92" width="89.38" height="7846.49" style="fill: #ffcece;"></rect><rect x="76.63" y="-3205.92" width="89.38" height="7846.49" style="fill: #ffcece;"></rect><rect x="208.62" y="-3205.92" width="89.39" height="7846.49" style="fill: #ffcece;"></rect><rect x="340.63" y="-3205.92" width="89.38" height="7846.49" style="fill: #ffcece;"></rect><rect x="472.62" y="-3205.92" width="89.38" height="7846.49" style="fill: #ffcece;"></rect><rect x="604.62" y="-3205.92" width="89.39" height="7846.49" style="fill: #ffcece;"></rect><g style="clip-path: url(#uuid-a2641add-696a-4d61-ab0e-9943413f01ad);"><path d="M1708.87,107.4H-129.17c-21.54,0-39-17.46-39-39v-887.75c0-21.54,17.46-39,39-39h1838.04c21.54,0,39,17.46,39,39V68.4c0,21.54-17.46,39-39,39" style="fill: #f6efe1;"></path></g><g style="clip-path: url(#uuid-c1e66499-394d-4cc5-ae75-129dcffb260b);"><path d="M1708.87,772.58H-129.17c-21.54,0-39-17.46-39-39V-44.58c0-21.54,17.46-39,39-39h1838.04c21.54,0,39,17.46,39,39v778.16c0,21.54-17.46,39-39,39" style="fill: #fff;"></path></g><g style="clip-path: url(#uuid-30bf023a-8c11-48b8-b578-6a5750bfc284);"><path d="M156.19,528.58V255.08h.2c.8-117.84,96.43-213.28,214.48-213.28s213.87,95.44,214.67,213.28v273.5H156.19Z" style="fill: #e4f6f4;"></path><path d="M633.45,166.37c0,40.85-33.12,73.97-73.97,73.97s-73.97-33.12-73.97-73.97,33.12-73.97,73.97-73.97,73.97,33.12,73.97,73.97" style="fill: #fff;"></path><path d="M524.34,181.85v-30.16c0-.97.42-1.9,1.15-2.55l26.38-23.36c1.29-1.15,3.23-1.15,4.52,0l26.38,23.36c.73.65,1.15,1.58,1.15,2.55v30.16c0,5.68-4.6,10.29-10.28,10.29h-39.01c-5.68,0-10.29-4.61-10.29-10.29" style="fill: #ff9a80;"></path><path d="M612.84,166.37c0-29.43-23.93-53.36-53.36-53.36-9.23,0-18.34,2.39-26.33,6.94-.78.44-1.05,1.43-.61,2.21.44.76,1.42,1.04,2.22.61,7.5-4.26,16.05-6.52,24.72-6.52,27.63,0,50.12,22.48,50.12,50.12,0,10.73-3.37,20.97-9.75,29.65-1.08-.64-2.14-.96-3.21-.96-3.65,0-6.63,2.98-6.63,6.63s2.98,6.63,6.63,6.63,6.62-2.97,6.62-6.63c0-1.14-.34-2.25-1.04-3.37,6.95-9.29,10.62-20.33,10.62-31.95M596.64,204.98c-1.81,0-3.29-1.48-3.29-3.29s1.48-3.29,3.29-3.29,3.29,1.48,3.29,3.29-1.48,3.29-3.29,3.29"></path><path d="M585.98,209.49c-.41-.13-.86-.05-1.22.16-.81.47-1.62.92-2.46,1.34-7.1,3.64-14.77,5.49-22.82,5.49-27.63,0-50.11-22.48-50.11-50.11,0-11.19,3.62-21.76,10.47-30.62,1.11.64,2.19.96,3.28.96,3.79,0,6.87-3.08,6.87-6.88s-3.08-6.87-6.87-6.87-6.87,3.08-6.87,6.87c0,1.27.4,2.5,1.2,3.69-7.42,9.46-11.33,20.81-11.33,32.85,0,29.42,23.94,53.36,53.36,53.36,8.57,0,16.75-1.96,24.31-5.85.97-.49,1.82-.96,2.6-1.42.77-.46,1.04-1.45.59-2.22-.22-.38-.57-.65-1-.75M523.12,126.37c1.91,0,3.46,1.55,3.46,3.46s-1.55,3.46-3.46,3.46-3.46-1.55-3.46-3.46,1.55-3.46,3.46-3.46"></path><path d="M591.17,158.09l6.22,5.52c.3.26.68.4,1.07.4h.11c.43-.03.82-.23,1.1-.55.29-.32.43-.74.4-1.17-.03-.43-.22-.82-.54-1.11l-38.97-34.52c-.61-.54-1.55-.54-2.15,0l-38.98,34.52c-.66.59-.73,1.61-.14,2.28.28.33.68.52,1.11.55.42-.03.85-.13,1.17-.4l6.23-5.52v31.03c0,5.19,4.22,9.41,9.41,9.41h5.75s.05.02.08.02h32.89s.05-.02.07-.02h5.76c5.19,0,9.41-4.22,9.41-9.41v-31.03ZM543.02,195.31c-.11-.02-.21-.1-.21-.21,0-7.06,5.75-12.8,12.81-12.8h7.73c7.06,0,12.8,5.74,12.8,12.8,0,.12-.09.2-.2.21h-32.93ZM563.35,179.08h-7.73c-8.84,0-16.03,7.19-16.03,16.02,0,.07.04.14.04.21h-2.42c-3.41,0-6.19-2.78-6.19-6.19v-33.89l28.46-25.2,28.46,25.2v33.89c0,3.41-2.77,6.19-6.18,6.19h-2.43c0-.07.05-.14.05-.21,0-8.83-7.19-16.02-16.03-16.02"></path><path d="M559.49,153.35c-6.49,0-11.77,5.28-11.77,11.77s5.28,11.76,11.77,11.76,11.77-5.28,11.77-11.76-5.28-11.77-11.77-11.77M559.49,173.66c-4.71,0-8.54-3.83-8.54-8.54s3.83-8.55,8.54-8.55,8.54,3.83,8.54,8.55-3.83,8.54-8.54,8.54"></path><path d="M280.03,198.22c0,75.52-61.22,136.74-136.74,136.74S6.55,273.74,6.55,198.22,67.77,61.48,143.29,61.48s136.74,61.22,136.74,136.74" style="fill: #ffbeed;"></path><path d="M229.96,372.3l-97.4,19.54c-10.41,2.08-20.53-4.65-22.61-15.03l-46.09-229.81c-2.08-10.39,4.66-20.5,15.06-22.59l97.41-19.54c10.4-2.08,20.53,4.65,22.61,15.03l46.09,229.81c2.08,10.39-4.67,20.5-15.07,22.59" style="fill: #372d4f;"></path><path d="M227.21,348.69l-100.78,20.21c-5.78,1.16-11.4-2.58-12.56-8.35l-43.43-216.54c-1.15-5.77,2.59-11.39,8.37-12.55l100.78-20.21c5.78-1.16,11.4,2.57,12.56,8.35l43.43,216.54c1.16,5.77-2.59,11.39-8.37,12.55" style="fill: #fff;"></path><path d="M182.66,130.81l-22.2,4.68c-2.19.46-4.36-.96-4.82-3.15l-1.06-5.03c-.46-2.19.95-4.36,3.14-4.82l22.2-4.67c2.19-.46,4.36.95,4.82,3.14l1.06,5.03c.46,2.19-.95,4.36-3.14,4.82" style="fill: #e4f6f4;"></path><path d="M162.7,132.7l-.21.04c-1.45.31-2.87-.62-3.17-2.07l-.7-3.31c-.31-1.45.62-2.87,2.07-3.18l.21-.04c1.45-.31,2.87.62,3.17,2.07l.7,3.31c.31,1.45-.62,2.87-2.07,3.18" style="fill: #372d4f;"></path><path d="M170.83,130.98l-.21.04c-1.45.31-2.87-.62-3.17-2.07l-.7-3.31c-.31-1.45.62-2.87,2.07-3.18l.21-.04c1.45-.31,2.87.62,3.17,2.07l.7,3.31c.31,1.45-.62,2.87-2.07,3.18" style="fill: #372d4f;"></path><path d="M178.96,129.27l-.21.04c-1.45.31-2.87-.62-3.17-2.07l-.7-3.31c-.31-1.45.62-2.87,2.07-3.18l.21-.04c1.45-.31,2.87.62,3.17,2.07l.7,3.31c.31,1.45-.62,2.87-2.07,3.18" style="fill: #372d4f;"></path><path d="M80.79,147.78l1.94-.41-1.31-6.24-1.55.32-.14-.7c.74-.3,1.25-.63,1.66-1l.84-.18,1.59,7.57,1.76-.37.19.9-4.79,1.01-.19-.9Z" style="fill: #372d4f;"></path><path d="M86.22,143.13c-.6-2.84.11-4.58,1.81-4.94,1.69-.36,3.04.95,3.63,3.8.6,2.84-.09,4.63-1.78,4.99-1.7.36-3.06-1.01-3.66-3.85M90.6,142.21c-.52-2.48-1.4-3.35-2.38-3.15-1,.21-1.46,1.36-.93,3.85.52,2.48,1.41,3.4,2.41,3.19.98-.2,1.42-1.41.9-3.89" style="fill: #372d4f;"></path><path d="M92.86,140.48c-.11-.5.18-.92.62-1.01.43-.09.86.18.96.68.1.48-.18.9-.61.99-.44.09-.87-.18-.97-.66M93.87,145.28c-.11-.51.18-.93.62-1.02.43-.09.86.18.96.69.1.47-.18.9-.61.99-.44.09-.87-.18-.97-.66" style="fill: #372d4f;"></path><path d="M96.14,141.04c-.6-2.84.11-4.58,1.81-4.94,1.69-.36,3.04.95,3.63,3.8.6,2.84-.09,4.63-1.78,4.99-1.7.36-3.06-1.01-3.66-3.85M100.52,140.12c-.52-2.48-1.4-3.35-2.38-3.15-1,.21-1.46,1.36-.93,3.85.52,2.48,1.41,3.4,2.41,3.19.98-.2,1.42-1.41.9-3.89" style="fill: #372d4f;"></path><path d="M102.76,139.65c-.6-2.84.11-4.58,1.81-4.94,1.69-.36,3.04.95,3.63,3.8.6,2.84-.09,4.63-1.78,4.99-1.7.36-3.06-1.01-3.66-3.85M107.14,138.73c-.52-2.48-1.4-3.35-2.38-3.15-1,.21-1.46,1.36-.93,3.85.52,2.48,1.41,3.4,2.41,3.19.98-.2,1.42-1.41.9-3.89" style="fill: #372d4f;"></path><path d="M98.69,175.17c-1.17-.04-1.62-.1-1.71-.56-.09-.41.31-.78.97-.92.93-.19,1.59.22,1.99.59l.06.06.93-1.19-.05-.05c-.6-.65-1.77-1.23-3.24-.93-1.6.33-2.56,1.5-2.3,2.8.3,1.44,1.5,1.75,3.21,1.78,1.13.03,1.52.11,1.61.57.09.42-.37.82-1.12.97-.83.17-1.6-.09-2.18-.75l-.07-.07-1.03,1.25.05.05c.8.95,2.13,1.35,3.54,1.06,1.68-.35,2.74-1.57,2.48-2.85-.29-1.42-1.42-1.75-3.14-1.81" style="fill: #2b2b2b;"></path><polygon points="110.4 175.49 107.66 170.35 105.95 170.7 105.46 176.51 102.79 171.27 101.05 171.63 104.74 178.57 106.89 178.13 107.29 172.91 109.72 177.55 111.87 177.1 112.53 169.27 110.79 169.63 110.4 175.49" style="fill: #2b2b2b;"></polygon><path d="M116.51,168.3c-2.21.45-3.48,2.4-3.03,4.63.45,2.19,2.45,3.5,4.66,3.04,1.41-.29,2.54-1.27,2.95-2.56l.02-.07-1.41-.64-.03.08c-.35.91-.95,1.45-1.85,1.63-1.16.24-2.2-.32-2.52-1.33l5.58-1.14v-.07c0-.22-.03-.46-.08-.72-.43-2.08-2.23-3.28-4.29-2.85M119.01,170.99l-3.92.81c.02-.99.7-1.78,1.71-1.99.98-.2,1.9.29,2.21,1.18" style="fill: #2b2b2b;"></path><path d="M124.6,166.64c-2.21.45-3.48,2.4-3.03,4.63.45,2.19,2.45,3.5,4.66,3.04,1.41-.29,2.54-1.27,2.95-2.56l.02-.07-1.41-.64-.03.08c-.35.91-.95,1.45-1.85,1.63-1.16.24-2.2-.32-2.52-1.33l5.58-1.14v-.07c0-.22-.03-.46-.08-.72-.43-2.08-2.23-3.28-4.29-2.85M127.1,169.33l-3.92.81c.02-.99.7-1.78,1.71-1.99.98-.2,1.9.29,2.21,1.18" style="fill: #2b2b2b;"></path><path d="M133.52,164.81c-1.06.22-1.83.72-2.29,1.5l-.17-.84-1.66.34,2.14,10.39,1.65-.33-.79-3.86c.73.54,1.64.7,2.69.49,2.15-.45,3.38-2.37,2.93-4.57-.46-2.25-2.36-3.56-4.5-3.12M131.83,169.2c-.27-1.33.52-2.59,1.81-2.85,1.28-.26,2.45.56,2.73,1.92.27,1.33-.47,2.49-1.76,2.76-1.32.27-2.51-.52-2.78-1.83" style="fill: #2b2b2b;"></path><path d="M141.9,166.3c-1.17-.04-1.62-.1-1.71-.56-.09-.41.31-.78.97-.92.93-.19,1.59.22,1.99.59l.06.06.93-1.19-.05-.05c-.6-.65-1.77-1.23-3.24-.93-1.6.33-2.56,1.5-2.3,2.8.3,1.44,1.5,1.75,3.21,1.78,1.13.03,1.52.11,1.61.57.09.42-.37.82-1.12.97-.83.17-1.6-.09-2.18-.75l-.07-.07-1.03,1.25.05.05c.8.95,2.13,1.35,3.54,1.06,1.68-.35,2.74-1.57,2.48-2.85-.29-1.42-1.42-1.75-3.14-1.81" style="fill: #2b2b2b;"></path><path d="M148.48,161.74c-2.23.46-3.58,2.45-3.13,4.64.45,2.2,2.48,3.5,4.71,3.04,2.23-.46,3.58-2.45,3.13-4.64-.45-2.2-2.47-3.5-4.71-3.04M149.74,167.86c-1.29.26-2.47-.52-2.73-1.82-.27-1.3.5-2.48,1.79-2.74,1.29-.27,2.47.51,2.74,1.81.26,1.3-.51,2.48-1.8,2.75" style="fill: #2b2b2b;"></path><path d="M159.66,163.92c.22,1.08-.41,1.97-1.58,2.21-1.06.21-1.81-.32-2.05-1.47l-.85-4.15-1.65.34.91,4.47c.39,1.89,1.82,2.82,3.73,2.43,1.21-.25,1.77-.94,1.99-1.34l.16.74,1.66-.34-1.52-7.38-1.65.34.85,4.15Z" style="fill: #2b2b2b;"></path><path d="M166.52,164.47c-.72.14-1.17-.14-1.32-.84l-.72-3.53,2.28-.47-.3-1.43-2.29.47-.48-2.31-1.61.33.47,2.32-1.31.26.3,1.43,1.28-.26.77,3.71c.3,1.5,1.44,2.2,3.03,1.87.59-.12,1.22-.38,1.55-.65l.05-.04-.32-1.57s-.53.55-1.38.71" style="fill: #2b2b2b;"></path><path d="M171.27,157.06c-1.18.24-1.73.93-1.95,1.34l-.85-4.12-1.66.34,2.21,10.76,1.65-.34-.85-4.16c-.26-1.24.59-2,1.54-2.19,1.05-.22,1.79.31,2.03,1.46l.85,4.15,1.65-.34-.91-4.46c-.39-1.9-1.81-2.83-3.71-2.44" style="fill: #2b2b2b;"></path><path d="M122.69,245.26l-2.46-11.37c-9.57.48-18.12-6-20.18-15.49-2.29-10.6,4.46-21.09,15.06-23.38l19.33-4.19c10.6-2.3,21.09,4.46,23.39,15.06,2.3,10.6-4.46,21.09-15.06,23.39l-10.66,2.3-9.42,13.68ZM115.66,197.55c-9.2,1.99-15.07,11.1-13.08,20.31,1.86,8.57,9.83,14.31,18.53,13.36l1.16-.13,1.68,7.77,6.61-9.59,11.66-2.53c9.21-1.99,15.07-11.1,13.08-20.3-2-9.2-11.1-15.07-20.31-13.08l-19.33,4.19Z" style="fill: #282d33;"></path><rect x="116.04" y="207.51" width="24.34" height="2.59" transform="translate(-41.28 31.86) rotate(-12.22)" style="fill: #282d33;"></rect><rect x="117.68" y="215.07" width="24.34" height="2.59" transform="translate(-42.84 32.37) rotate(-12.22)" style="fill: #282d33;"></rect><rect x="123.57" y="256.39" width="13.08" height="13.08" transform="translate(-52.74 33.53) rotate(-12.23)" style="fill: #80b9a2;"></rect><rect x="128.57" y="279.46" width="13.08" height="13.08" transform="translate(-57.52 35.11) rotate(-12.23)" style="fill: #80b9a2;"></rect><path d="M148.04,314.81l-12.78,2.76c-.65.15-1.3-.27-1.44-.92l-2.77-12.78c-.14-.66.27-1.3.93-1.44l12.78-2.77c.65-.14,1.3.27,1.44.93l2.77,12.78c.14.65-.28,1.29-.93,1.44M135.93,314.95l10.41-2.25-2.25-10.42-10.42,2.26,2.26,10.41Z" style="fill: #080717;"></path><polygon points="190.69 250.48 144.63 260.46 144.12 258.09 190.18 248.11 190.69 250.48" style="fill: #080717;"></polygon><polygon points="131.62 266.02 125.74 262.24 127.05 260.2 130.89 262.67 138.79 250.41 140.83 251.72 131.62 266.02" style="fill: #080717;"></polygon><polygon points="185.05 275.86 149.62 283.53 149.11 281.17 184.54 273.49 185.05 275.86" style="fill: #080717;"></polygon><polygon points="180.08 300.62 154.52 306.16 154.01 303.79 179.57 298.25 180.08 300.62" style="fill: #080717;"></polygon><polygon points="136.61 289.09 130.73 285.31 132.04 283.27 135.88 285.74 143.78 273.48 145.82 274.79 136.61 289.09" style="fill: #080717;"></polygon><path d="M198.41,337.63l-47.23,10.06c-4.71,1-9.34-2.01-10.34-6.72-.99-4.67,1.99-9.26,6.66-10.25l47.29-10.08c4.69-.99,9.31,2,10.3,6.69,1,4.69-1.99,9.3-6.68,10.3" style="fill: #007749;"></path><polygon points="160.84 457.41 152.68 493.36 119.93 500.96 150.93 510.91 160.84 544.25 169.65 510.32 199.48 500.83 169.06 493.36 160.84 457.41" style="fill: #fff;"></polygon><path d="M160.84,545.88c-.73,0-1.36-.47-1.57-1.16l-9.67-32.52-30.18-9.68c-.7-.22-1.16-.89-1.13-1.62.03-.74.55-1.36,1.26-1.53l31.76-7.37,7.93-34.95c.17-.74.83-1.27,1.59-1.27h.01c.76,0,1.42.53,1.59,1.27l8,34.96,29.43,7.23c.72.18,1.22.81,1.25,1.54.02.73-.44,1.39-1.14,1.61l-28.97,9.22-8.58,33.05c-.19.71-.82,1.21-1.55,1.22h-.03ZM126.06,501.22l25.36,8.13c.52.17.92.58,1.07,1.09l8.24,27.72,7.33-28.25c.14-.54.55-.97,1.09-1.14l24.3-7.74-24.78-6.08c-.6-.15-1.07-.62-1.2-1.23l-6.63-28.95-6.57,28.95c-.13.61-.61,1.09-1.22,1.23l-26.99,6.27ZM152.68,493.36h0,0Z"></path><polygon points="512.88 3.3 507.9 25.24 487.91 29.88 506.83 35.95 512.88 56.3 518.25 35.59 536.46 29.8 517.9 25.24 512.88 3.3"></polygon><path d="M326.92,77.79c0-17.89,10.81-31.74,21.95-38.84,22.38-14.28,49.74-3.45,63.77,7.03,6.75,5.04,21.95,16.42,21.95,35.33s-9.82,35.32-21.95,35.32h-64.8v-.04c-11.64-.95-20.92-17.96-20.92-38.8" style="fill: #25241d;"></path><path d="M332.15,217.66h97.21v-38.13c0-21.34-17.31-38.64-38.65-38.64h-19.92c-21.34,0-38.64,17.3-38.64,38.64v38.13Z" style="fill: #ca65b0;"></path><path d="M370.2,124.42c.74-10.8-5.18-18.19-6.43-19.67h35.12v.02c-1.62,2.02-6.04,8.12-6.42,17.13-.45,10.54,4.95,17.81,6.42,19.65-1.79,1.46-8.95,7-19.38,6.54-8.89-.38-14.91-4.9-16.88-6.52,1.53-1.61,6.92-7.64,7.57-17.15" style="fill: #b46250;"></path><path d="M348.87,78.92c0,17.61,14.28,31.89,31.89,31.89s31.89-14.28,31.89-31.89-14.28-31.89-31.89-31.89-31.89,14.28-31.89,31.89" style="fill: #b46250;"></path><path d="M383.63,63.92c19.13,3.84,36.57-2.68,38.96-14.56,2.38-11.89-11.19-24.64-30.31-28.48-19.13-3.84-36.57,2.68-38.96,14.56-2.39,11.89,11.18,24.64,30.31,28.48" style="fill: #25241d;"></path><path d="M385.12,84.17c.61,0,1.17-.32,1.48-.85.31-.54.3-1.2-.02-1.74l-6.14-12.13c-.23-.46-.79-.64-1.25-.41-.46.23-.64.79-.41,1.25l6.08,12.02h-5.25c-.52,0-.93.42-.93.93s.41.93.93.93h5.51" style="fill: #211f19;"></path><path d="M391.88,74.94c.22,0,.44-.01.67-.03,3-.31,5.56-2.69,6.22-5.79.1-.51-.22-1-.72-1.11-.51-.1-1,.22-1.1.72-.49,2.32-2.38,4.1-4.59,4.33-2.65.27-5.16-1.7-5.71-4.49-.1-.5-.58-.83-1.09-.73-.5.1-.83.59-.73,1.09.68,3.48,3.71,6.01,7.05,6.01" style="fill: #211f19;"></path><path d="M368.25,74.94c.22,0,.44-.01.67-.03,3-.31,5.56-2.69,6.22-5.79.1-.51-.22-1-.72-1.11-.51-.1-1,.22-1.1.72-.49,2.32-2.38,4.1-4.59,4.33-2.65.27-5.16-1.7-5.71-4.49-.1-.5-.58-.83-1.09-.73-.5.1-.83.59-.73,1.09.68,3.48,3.71,6.01,7.05,6.01" style="fill: #211f19;"></path><path d="M399.4,80.59c0-2.89-2.34-5.23-5.23-5.23s-5.23,2.34-5.23,5.23,2.34,5.23,5.23,5.23,5.23-2.34,5.23-5.23" style="fill: #d14523;"></path><path d="M373,80.59c0-2.89-2.34-5.23-5.23-5.23s-5.23,2.34-5.23,5.23,2.34,5.23,5.23,5.23,5.23-2.34,5.23-5.23" style="fill: #d14523;"></path><path d="M381.43,91.38c.12,0,.23,0,.35-.01,5.07-.19,9.24-4.61,9.29-9.83,0-.52-.41-.94-.92-.94h-.01c-.51,0-.93.41-.93.92-.04,4.25-3.41,7.84-7.51,8-2.07.07-4.14-.76-5.69-2.28-1.62-1.61-2.49-3.75-2.43-6.03.02-.51-.39-.94-.9-.95h-.03c-.5,0-.91.4-.93.9-.07,2.76,1.02,5.45,2.99,7.4,1.82,1.8,4.26,2.82,6.72,2.82" style="fill: #211f19;"></path><path d="M405.95,97.93c0,4.13,2.07,7.48,4.63,7.48s4.64-3.35,4.64-7.48-2.08-7.48-4.64-7.48-4.63,3.35-4.63,7.48" style="fill: #f2c14a;"></path><path d="M346.03,97.93c0,4.13,2.07,7.48,4.63,7.48s4.64-3.35,4.64-7.48-2.08-7.48-4.64-7.48-4.63,3.35-4.63,7.48" style="fill: #f2c14a;"></path><path d="M428.51,262.98c3.62,31.45-1.68,51.21-5.15,83.64-3.1,28.94-.2,25.58-3.01,62.71-2.54,33.6-6.75,60.55-9.87,77.93h-15.67c-6.98-29.25-9.23-55.86-8.8-79.51.29-15.39,1.59-22.58,2.15-39.35.98-28.97-1.27-55.62-5.15-79.51.76,31.18-4.41,52.9-9.44,67.17-3.08,8.73-5.81,13.83-9.02,25.98-3.41,12.91-4.77,23.92-6.37,48.2-1.01,15.16-2.04,34.45-2.64,57.02h-16.32c-16.3-57.52-13.64-90.63-7.72-110.47,1.28-4.3,3.16-9.45,4.72-18.1,4.93-27.29-1.65-42.95-2.57-71.11-.35-10.48,0-25.57,3.43-44.08h88.21c.92,4.22,2.25,11.02,3.22,19.48" style="fill: #ca65b0;"></path><polygon points="429.36 217.66 332.15 217.66 313.89 361.74 442.76 361.74 429.36 217.66" style="fill: #015e3a;"></polygon><path d="M313.88,193.1h38.63v-47.62h-7.8c-17.03,0-30.83,13.8-30.83,30.83v16.79Z" style="fill: #ca65b0;"></path><path d="M448.67,193.1h-38.63v-47.62h7.8c17.03,0,30.83,13.8,30.83,30.83v16.79Z" style="fill: #ca65b0;"></path><path d="M448.67,193.1h-19.32v42.11l-30.47-21.06c-1.32,5.11-2.65,10.21-3.98,15.31,8.11,10.61,32.85,41.72,44.66,36.34,5.22-2.37,6.34-11.16,8.3-28.04,2.15-18.61,1.65-34.1.81-44.66" style="fill: #b46250;"></path><path d="M313.88,193.1c-.61,8.93-.53,16.35-.32,21.69.72,18.08,3.41,23.32,4.47,25.2,2.99,5.31,6.88,8.46,11.48,11.8,8.15,5.92,21.18,14.39,40,22.88,1.57-5.26,3.14-10.52,4.71-15.78l-41.02-29.13v-36.66h-19.32Z" style="fill: #b46250;"></path><path d="M404.75,217.66l12.72,6.32c1.49.74,2.41,2.29,2.32,3.95-.17,2.9-1.05,7.41-4.59,11.2-3.9,4.17-9.72,6.1-15.56,5.33-1.88-.25-3.48-1.5-4.24-3.24l-4.51-10.37,13.86-13.19Z" style="fill: #80dad1;"></path><path d="M401.5,217.66h20.65v-71.86c-6.88-1.13-13.77-2.26-20.65-3.38v75.24Z" style="fill: #015e3a;"></path><path d="M367.08,256.77h5.16c3.93,0,7.12-3.19,7.12-7.12v-.49c0-1.79-1.45-3.25-3.25-3.25-4.98,0-9.03,4.05-9.03,9.04v1.82Z" style="fill: #80dad1;"></path><path d="M359.63,217.66h-20.65v-71.86c6.88-1.13,13.77-2.26,20.65-3.38v75.24Z" style="fill: #015e3a;"></path><path d="M338.58,485.23v26.5h39.74c-.14-1.58-.43-3.58-1.09-5.5-.42-1.23-.99-2.42-1.77-3.45-3.59-4.74-8.26-1.68-12.77-5.85-1.77-1.63-3.99-4.81-5.37-11.7h-18.74Z" style="fill: #1b1b31;"></path><path d="M338.58,506.22v5.51h39.74c-.14-1.59-.43-3.59-1.09-5.51h-38.65Z" style="fill: #004d9c;"></path><path d="M363.92,503.35c-.17-.09-.27-.28-.23-.47l1.35-7.84-4.84,3.78c-.15.12-.35.13-.51.02-.16-.11-.22-.3-.17-.48l2.49-8.11-5.62,2.1c-.17.06-.36.01-.48-.12-.12-.14-.14-.34-.05-.5l2.74-4.99c.12-.21.38-.28.59-.17.21.12.29.38.17.59l-2.18,3.97,5.35-2c.15-.06.33-.03.45.09.12.11.16.28.12.44l-2.34,7.63,4.64-3.62c.14-.11.33-.13.49-.03.15.09.23.27.2.44l-1.3,7.54c.51-.54,1.17-1.22,1.83-1.89,3.03-3.06,3.33-3.06,3.58-3.06s.43.2.43.44c0,.21-.15.39-.36.42-.54.26-3.38,3.1-5.84,5.72-.08.09-.2.14-.32.14-.06,0-.13,0-.19-.04M370.2,497.54h0Z" style="fill: #35a8e0;"></path><path d="M394.06,485.23v26.5h38.28c-.14-1.58-.42-3.58-1.06-5.5-.4-1.23-.95-2.42-1.7-3.45-3.46-4.74-7.95-1.68-12.3-5.85-1.7-1.63-3.84-4.81-5.17-11.7h-18.05Z" style="fill: #1b1b31;"></path><path d="M394.06,506.22v5.51h38.28c-.14-1.59-.42-3.59-1.06-5.51h-37.22Z" style="fill: #004d9c;"></path><path d="M418.47,503.34c-.17-.08-.26-.27-.23-.46l1.31-7.83-4.65,3.76c-.14.12-.35.13-.5.03-.16-.11-.23-.3-.17-.48l2.39-8.12-5.39,2.1c-.17.06-.36.02-.48-.12-.12-.13-.14-.32-.06-.48l2.65-4.99c.11-.21.37-.29.57-.18.21.11.29.37.18.58l-2.11,3.98,5.14-2c.16-.05.33-.02.45.09.12.11.16.28.12.43l-2.26,7.64,4.45-3.61c.14-.12.33-.13.49-.04.15.09.23.26.2.44l-1.26,7.53c.5-.54,1.12-1.21,1.75-1.87,2.92-3.06,3.21-3.06,3.46-3.06s.43.19.43.42c0,.21-.15.39-.35.42-.53.27-3.26,3.1-5.63,5.72-.08.09-.19.14-.31.14-.07,0-.13,0-.19-.04M424.52,497.53h0Z" style="fill: #35a8e0;"></path><path d="M307.42,455.05h0c2.07.72,4.33-.37,5.05-2.43L441.45,83.58c.72-2.06-.37-4.32-2.44-5.04-2.06-.73-4.32.36-5.05,2.43l-128.97,369.03c-.73,2.07.36,4.33,2.43,5.05" style="fill: #ef9300;"></path><path d="M267.43,441.22l79.25,27.7c1.73-4.96-.88-10.38-5.84-12.11l-61.3-21.43c-4.96-1.73-10.38.89-12.11,5.84" style="fill: #66ada6;"></path><path d="M345.19,468.4c-25.4-8.88-50.8-17.75-76.2-26.63-2.41,6.62-6.81,16.23-14.88,25.97-6.55,7.9-13.38,13.3-18.63,16.83,2.31,2.68,4.62,5.37,6.93,8.05,3.31-.85,7.67-2.45,11.88-5.7,7.73-5.98,10.42-14.01,11.04-13.82.39.11-.91,4.55-7.62,22.07,13.77,3.09,27.08,6.09,39.94,8.98,1.82-1.22,4.11-3.07,6.21-5.79,4.23-5.46,5.24-11.19,5.53-14-.4,7.39-.81,14.77-1.21,22.16,6.98,1.57,13.82,3.11,20.55,4.62.97-5.31,1.93-10.6,2.9-15.86.35,2.18,1.99,10.53,9.24,15.2,1.85,1.2,3.7,1.91,5.32,2.34-1.37-4.5-4.81-16.45-5.3-26.22-.12-2.44-.04-4.34.21-6.23.72-5.38,2.67-9.49,4.09-11.97" style="fill: #2d3b4d;"></path><path d="M331.85,464.97c-2.08,6.32-4.07,13.4-5.77,21.19-1.72,7.86-2.88,15.27-3.66,22.08" style="fill: #2d3b4d;"></path><path d="M324.49,508.46c.83-7.34,2.05-14.71,3.62-21.89,1.55-7.1,3.48-14.16,5.72-21l-3.96-1.19c-2.29,6.96-4.25,14.15-5.83,21.38-1.6,7.31-2.84,14.8-3.68,22.27l4.13.43Z" style="fill: #1d1d1b;"></path><path d="M307.12,457.67c-1.6,5.23-3.84,11.2-7.02,17.64-4.3,8.69-9.23,16.02-13.81,21.93" style="fill: #2d3b4d;"></path><path d="M287.95,498.42c5.51-7.1,10.23-14.59,14.02-22.26,2.88-5.82,5.29-11.86,7.14-17.93l-3.99-1.12c-1.79,5.88-4.12,11.71-6.91,17.35-3.68,7.43-8.25,14.7-13.6,21.59l3.34,2.37Z" style="fill: #1d1d1b;"></path><path d="M288.84,453.92c-1.27,6-3.42,13.33-7.18,21.44-3.22,6.91-6.89,12.83-10.35,17.69" style="fill: #2d3b4d;"></path><path d="M273.02,494.17c4.12-5.78,7.66-11.84,10.53-18.01,3.29-7.07,5.75-14.42,7.32-21.85l-4.07-.78c-1.51,7.13-3.88,14.21-7.05,21.02-2.77,5.95-6.19,11.8-10.17,17.38l3.44,2.24Z" style="fill: #1d1d1b;"></path><path d="M271.21,450.08c-2.84,5.34-6.81,11.67-12.38,18.43-6.39,7.75-13.15,13.96-19.08,18.74" style="fill: #2d3b4d;"></path><path d="M241.08,488.77c7.28-5.86,13.8-12.27,19.38-19.03,4.9-5.95,9.14-12.26,12.6-18.76l-3.71-1.8c-3.33,6.26-7.42,12.35-12.16,18.1-5.4,6.55-11.72,12.76-18.79,18.45l2.68,3.04Z" style="fill: #1d1d1b;"></path><path d="M316.8,463.77c-1.8,5.08-3.52,11.01-4.79,17.71-1.75,9.15-2.22,17.4-2.12,24.32" style="fill: #2d3b4d;"></path><path d="M307.81,505.83l4.16-.05c-.12-8.02.59-16.08,2.08-23.95,1.13-5.9,2.72-11.76,4.72-17.42l-3.94-1.28c-2.07,5.84-3.71,11.89-4.87,17.99-1.54,8.12-2.27,16.43-2.15,24.71" style="fill: #1d1d1b;"></path><path d="M368.26,282.8h0c6.54,2.77,14.09-.3,16.85-6.84l1.91-4.51c2.77-6.55-.29-14.09-6.83-16.86-6.55-2.76-14.09.3-16.86,6.84l-1.91,4.52c-2.76,6.54.3,14.08,6.84,16.85" style="fill: #80dad1;"></path><path d="M382.15,331.2c.34,0,.67-.19.83-.51,3.29-6.58,9.55-15.72,20.68-21.94,5.02-2.8,10.5-4.7,16.28-5.63.51-.09.85-.56.77-1.07s-.56-.85-1.07-.77c-5.99.97-11.68,2.94-16.89,5.85-11.54,6.44-18.03,15.91-21.43,22.72-.23.46-.04,1.02.41,1.25.14.07.28.1.42.1" style="fill: #211f19;"></path><path d="M382.79,314.61c.35,0,.68-.19.84-.53,2.11-4.37,4.85-8.37,8.13-11.89,4.81-5.14,10.87-9.25,17.53-11.89.48-.19.71-.73.52-1.21-.19-.47-.73-.71-1.2-.52-6.92,2.74-13.21,7.01-18.2,12.35-3.42,3.66-6.26,7.81-8.46,12.36-.22.46-.03,1.01.44,1.24.13.06.26.09.4.09" style="fill: #211f19;"></path><path d="M367.53,254.14l-10.15-9.93c-1.19-1.17-2.96-1.52-4.5-.89-2.68,1.11-6.64,3.43-9.06,8.02-2.66,5.05-2.56,11.19.09,16.44.85,1.7,2.56,2.8,4.45,2.94l11.27.85,7.9-17.43Z" style="fill: #80dad1;"></path><path d="M387.13,235.27h0c6.54,2.77,14.09-.29,16.85-6.84l1.91-4.51c2.77-6.55-.29-14.09-6.83-16.86-6.55-2.76-14.09.3-16.86,6.84l-1.91,4.52c-2.76,6.54.3,14.08,6.84,16.85" style="fill: #80dad1;"></path><rect x="429.93" y="189.27" width="20.04" height="5.16" style="fill: #fff;"></rect><rect x="313.74" y="189.27" width="20.04" height="5.16" style="fill: #fff;"></rect><path d="M547.51,330.54c.1-.96.17-1.92.2-2.88.54-.01,1.07-.04,1.61-.04.5,0,1,.03,1.5.04.15,47.93,38.56,86.84,86.3,87.82.14.09.22.14.22.16,0,48.61-39.41,88.02-88.02,88.02s-88.02-39.41-88.02-88.02c0-.02.08-.08.23-.17,46.66-1.08,84.34-38.41,85.98-84.93" style="fill: #fae3a3;"></path><path d="M497,396.91c0,17.64,14.35,31.98,31.98,31.98s31.99-14.34,31.99-31.98-14.35-31.98-31.99-31.98-31.98,14.34-31.98,31.98" style="fill: #e1ae0c;"></path><path d="M528.98,413.83c-4.15,0-7.52-3.37-7.52-7.52,0-1.04-.84-1.88-1.88-1.88s-1.88.84-1.88,1.88c0,5.58,4.07,10.22,9.4,11.12v2.05c0,1.04.84,1.88,1.88,1.88s1.89-.84,1.89-1.88v-2.05c5.33-.9,9.4-5.54,9.4-11.12,0-6.23-5.06-11.29-11.29-11.29-4.15,0-7.52-3.38-7.52-7.53s3.37-7.52,7.52-7.52,7.53,3.37,7.53,7.52c0,1.04.84,1.89,1.88,1.89s1.88-.85,1.88-1.89c0-5.58-4.07-10.21-9.4-11.11v-2.06c0-1.03-.84-1.88-1.89-1.88s-1.88.85-1.88,1.88v2.06c-5.33.9-9.4,5.53-9.4,11.11,0,6.23,5.06,11.29,11.28,11.29,4.16,0,7.53,3.38,7.53,7.53s-3.37,7.52-7.53,7.52M497,396.9c0,17.64,14.35,31.98,31.98,31.98s31.99-14.34,31.99-31.98-14.35-31.98-31.99-31.98-31.98,14.35-31.98,31.98M493.24,396.9c0-19.71,16.03-35.74,35.74-35.74s35.75,16.03,35.75,35.74-16.03,35.75-35.75,35.75-35.74-16.04-35.74-35.75M489.72,461.51h0c-5.6-2.12-8.28-6.89-6.84-12.12.67-2.57,2.3-4.72,4.59-6.04,2.3-1.33,4.98-1.68,7.69-.95l25.84,8.93c-.18-.55-.32-1.11-.41-1.69-.75-5.43,3.05-10.45,8.45-11.19l31.99-4.52c5.89-.84,12.27,2.33,16.52,8.12h19.72c1.04,0,1.88.85,1.88,1.89s-.84,1.88-1.88,1.88h-20.7c-.62,0-1.21-.32-1.56-.84-2.82-4.2-8.06-8.09-13.45-7.33l-32,4.52c-3.36.47-5.71,3.59-5.25,6.94.27,1.85,1.32,3.45,2.9,4.41,1.23.79,2.68,1.11,4.09.9l23.96-3.39c1.03-.14,1.98.58,2.13,1.6.14,1.03-.58,1.98-1.61,2.13l-23.94,3.38c-.46.07-.92.1-1.38.1-1.74,0-3.47-.49-5-1.39l-31.41-10.85c-1.61-.43-3.27-.22-4.69.6-1.42.82-2.42,2.15-2.85,3.77-.92,3.34.78,6.19,4.47,7.6l46.61,15.56c1.78.58,4.89.68,6.73.19l33.74-7.17c.13-.02.26-.04.4-.04h18.81c1.04,0,1.88.85,1.88,1.88s-.84,1.89-1.88,1.89h-18.62l-33.46,7.1c-1.05.28-2.37.42-3.73.42-1.79,0-3.64-.24-5.05-.7l-46.69-15.59Z" style="fill: #162b39;"></path></g></svg> 